<svg width="289" height="8" viewBox="0 0 289 8" fill="none" xmlns="http://www.w3.org/2000/svg">
<path d="M0.5 3.18164C0.223858 3.18164 0 3.4055 0 3.68164C0 3.95778 0.223858 4.18164 0.5 4.18164V3.68164V3.18164ZM288.854 4.03519C289.049 3.83993 289.049 3.52335 288.854 3.32809L285.672 0.146107C285.476 -0.0491555 285.16 -0.0491555 284.964 0.146107C284.769 0.341369 284.769 0.657951 284.964 0.853214L287.793 3.68164L284.964 6.51007C284.769 6.70533 284.769 7.02191 284.964 7.21717C285.16 7.41244 285.476 7.41244 285.672 7.21717L288.854 4.03519ZM0.5 3.68164V4.18164H288.5V3.68164V3.18164H0.5V3.68164Z" fill="#006174"/>
</svg>
