<svg width="261" height="8" viewBox="0 0 261 8" fill="none" xmlns="http://www.w3.org/2000/svg">
<path d="M0.5 3.18164C0.223858 3.18164 0 3.4055 0 3.68164C0 3.95778 0.223858 4.18164 0.5 4.18164V3.68164V3.18164ZM260.854 4.03519C261.049 3.83993 261.049 3.52335 260.854 3.32809L257.672 0.146107C257.476 -0.0491555 257.16 -0.0491555 256.964 0.146107C256.769 0.341369 256.769 0.657951 256.964 0.853214L259.793 3.68164L256.964 6.51007C256.769 6.70533 256.769 7.02191 256.964 7.21717C257.16 7.41244 257.476 7.41244 257.672 7.21717L260.854 4.03519ZM0.5 3.68164V4.18164H260.5V3.68164V3.18164H0.5V3.68164Z" fill="#75A302"/>
</svg>
