<svg width="284" height="8" viewBox="0 0 284 8" fill="none" xmlns="http://www.w3.org/2000/svg">
<path d="M0.5 3.18164C0.223858 3.18164 0 3.4055 0 3.68164C0 3.95778 0.223858 4.18164 0.5 4.18164V3.68164V3.18164ZM283.854 4.03519C284.049 3.83993 284.049 3.52335 283.854 3.32809L280.672 0.146107C280.476 -0.0491555 280.16 -0.0491555 279.964 0.146107C279.769 0.341369 279.769 0.657951 279.964 0.853214L282.793 3.68164L279.964 6.51007C279.769 6.70533 279.769 7.02191 279.964 7.21717C280.16 7.41244 280.476 7.41244 280.672 7.21717L283.854 4.03519ZM0.5 3.68164V4.18164H283.5V3.68164V3.18164H0.5V3.68164Z" fill="#FF5B32"/>
</svg>
