<svg width="84" height="40" viewBox="0 0 84 40" fill="none" xmlns="http://www.w3.org/2000/svg">
<path d="M69 21C69.5523 21 70 20.5523 70 20C70 19.4477 69.5523 19 69 19V20V21ZM14.2929 19.2929C13.9024 19.6834 13.9024 20.3166 14.2929 20.7071L20.6569 27.0711C21.0474 27.4616 21.6805 27.4616 22.0711 27.0711C22.4616 26.6805 22.4616 26.0474 22.0711 25.6569L16.4142 20L22.0711 14.3431C22.4616 13.9526 22.4616 13.3195 22.0711 12.9289C21.6805 12.5384 21.0474 12.5384 20.6569 12.9289L14.2929 19.2929ZM69 20V19H15V20V21H69V20Z" fill="#FF5B32"/>
</svg>
