<svg width="84" height="40" viewBox="0 0 84 40" fill="none" xmlns="http://www.w3.org/2000/svg">
<path d="M15 19C14.4477 19 14 19.4477 14 20C14 20.5523 14.4477 21 15 21V20V19ZM69.7071 20.7071C70.0976 20.3166 70.0976 19.6834 69.7071 19.2929L63.3431 12.9289C62.9526 12.5384 62.3195 12.5384 61.9289 12.9289C61.5384 13.3195 61.5384 13.9526 61.9289 14.3431L67.5858 20L61.9289 25.6569C61.5384 26.0474 61.5384 26.6805 61.9289 27.0711C62.3195 27.4616 62.9526 27.4616 63.3431 27.0711L69.7071 20.7071ZM15 20V21H69V20V19H15V20Z" fill="#FF5B32"/>
</svg>
