<svg width="185" height="12" viewBox="0 0 185 12" fill="none" xmlns="http://www.w3.org/2000/svg">
<path d="M0.75 4.77344C0.335786 4.77344 0 5.10922 0 5.52344C0 5.93765 0.335786 6.27344 0.75 6.27344V5.52344V4.77344ZM184.28 6.05377C184.573 5.76087 184.573 5.286 184.28 4.99311L179.507 0.220137C179.214 -0.0727568 178.74 -0.0727568 178.447 0.220137C178.154 0.51303 178.154 0.987904 178.447 1.2808L182.689 5.52344L178.447 9.76608C178.154 10.059 178.154 10.5338 178.447 10.8267C178.74 11.1196 179.214 11.1196 179.507 10.8267L184.28 6.05377ZM0.75 5.52344V6.27344H183.75V5.52344V4.77344H0.75V5.52344Z" fill="#FF5B32"/>
</svg>
