<svg width="118" height="36" viewBox="0 0 118 36" fill="none" xmlns="http://www.w3.org/2000/svg">
<path fill-rule="evenodd" clip-rule="evenodd" d="M11.2101 0.0216845C16.2551 -0.336021 13.4731 3.83601 15.9376 4.8459C18.4029 5.85552 23.5698 1.84835 27.0724 3.42305C30.575 4.99797 20.7829 13.1727 25.5001 15.3742C30.2173 17.5756 32.0105 4.42291 37.1798 6.41817C42.3481 8.41479 30.7417 37.3624 24.1671 35.4309C15.4617 32.8729 27.3231 23.6511 23.4337 21.5568C20.9439 20.2162 18.455 34.1428 12.4464 31.382C3.35605 27.2049 18.5828 14.1303 17.3781 11.9563C16.3945 10.1822 12.1867 15.8084 8.54897 13.6467C4.91105 11.4843 11.7136 8.4204 8.72963 7.12813C5.7457 5.83604 2.18581 10.9427 0.2394 7.33907C-1.44817 4.21261 6.16447 0.37968 11.2101 0.0216845ZM42.7687 20.092C45.537 20.092 49.6397 21.6374 49.3771 27.6984H40.6066C40.8289 28.9541 41.5972 29.7512 42.8703 29.7512C43.7591 29.7512 44.567 29.6061 44.9308 28.5441H49.1749C48.2252 31.7796 45.6587 32.6486 42.8703 32.6486C38.7076 32.6486 35.838 30.9826 35.838 26.3703C35.8381 21.9756 38.8487 20.0921 42.7687 20.092ZM97.4503 20.092C100.219 20.092 104.32 21.6375 104.058 27.6984H95.2882C95.5104 28.954 96.2782 29.751 97.5509 29.7512C98.4399 29.7512 99.2487 29.6063 99.6124 28.5441H103.856C103.855 28.5458 103.854 28.5474 103.854 28.549H104.377C105.07 28.549 105.814 28.3049 106.099 27.6633C106.226 27.3758 106.291 27.0521 106.291 26.6359V20.3332H112.423L112.444 20.3576V20.3332H117.091V32.4074H112.444V23.593H110.434V27.8195C110.434 30.8861 109.16 32.4074 106.594 32.4074H99.8283C99.1079 32.5796 98.3381 32.6486 97.5509 32.6486C93.3885 32.6485 90.5197 30.9824 90.5197 26.3703C90.5197 21.9755 93.5303 20.092 97.4503 20.092ZM61.8488 23.593H58.2111V32.4074H53.5636V23.593H49.9269V20.3332H61.8488V23.593ZM84.1994 20.3576V20.3332H88.8468V29.1477H89.7365V32.3781H77.1281V29.1477H77.6945L78.1183 27.9162C78.4012 27.0952 78.5431 26.2738 78.5431 25.4045V20.3332H84.1789L84.1994 20.3576ZM70.6388 24.6799L72.922 20.3332H77.1662L71.0041 32.343H66.4376L67.9914 29.2922L63.0412 20.3332H68.1935L70.6388 24.6799ZM82.6857 26.0803C82.6857 27.3843 82.463 28.3991 81.9982 29.1477H84.1994V23.593H82.6857V26.0803ZM42.7492 22.966C41.5975 22.966 40.8095 23.6657 40.5871 24.9211H44.9308C44.5266 23.5694 43.4361 22.9662 42.7492 22.966ZM97.4298 22.966C96.2784 22.9661 95.49 23.6658 95.2677 24.9211H99.6124C99.2083 23.5691 98.1169 22.966 97.4298 22.966Z" fill="#FF5B32"/>
</svg>
