<svg width="45" height="45" viewBox="0 0 45 45" fill="none" xmlns="http://www.w3.org/2000/svg">
<g clip-path="url(#clip0_1958_8575)">
<path d="M22.5014 43.5887C34.1173 43.5887 43.534 34.172 43.534 22.556C43.534 10.9401 34.1173 1.52344 22.5014 1.52344C10.8854 1.52344 1.46875 10.9401 1.46875 22.556C1.46875 34.172 10.8854 43.5887 22.5014 43.5887Z" stroke="#FF5B32" stroke-width="1.74956"/>
<path d="M23.3571 29.4358C16.7769 29.4358 13.0236 24.7882 12.8672 17.0547H16.1633C16.2716 22.7309 18.7015 25.1352 20.6263 25.631V17.0547H23.7301V21.9501C25.6308 21.7394 27.6274 19.5086 28.3011 17.0547H31.4048C30.8875 20.0787 28.7223 22.3095 27.1825 23.2266C28.7223 23.9702 31.1884 25.9161 32.1268 29.4358H28.7102C27.9764 27.081 26.1481 25.2592 23.7301 25.0113V29.4358H23.3571Z" fill="#FF5B32"/>
</g>
<defs>
<clipPath id="clip0_1958_8575">
<rect width="45" height="45" fill="white"/>
</clipPath>
</defs>
</svg>
