<svg width="276" height="12" viewBox="0 0 276 12" fill="none" xmlns="http://www.w3.org/2000/svg">
<path d="M0.75 4.77344C0.335786 4.77344 0 5.10922 0 5.52344C0 5.93765 0.335786 6.27344 0.75 6.27344V5.52344V4.77344ZM275.28 6.05377C275.573 5.76087 275.573 5.286 275.28 4.99311L270.507 0.220137C270.214 -0.0727568 269.74 -0.0727568 269.447 0.220137C269.154 0.51303 269.154 0.987904 269.447 1.2808L273.689 5.52344L269.447 9.76608C269.154 10.059 269.154 10.5338 269.447 10.8267C269.74 11.1196 270.214 11.1196 270.507 10.8267L275.28 6.05377ZM0.75 5.52344V6.27344H274.75V5.52344V4.77344H0.75V5.52344Z" fill="#75A302"/>
</svg>
