<svg width="26" height="26" viewBox="0 0 26 26" fill="none" xmlns="http://www.w3.org/2000/svg">
<mask id="path-1-outside-1_2058_1894" maskUnits="userSpaceOnUse" x="0" y="0" width="26" height="26" fill="black">
<rect fill="white" width="26" height="26"/>
<path d="M12.793 1C19.3056 1 24.5851 2.57439 24.5859 4.5166C24.5859 5.59634 22.9546 6.56187 20.3867 7.20703C22.9544 7.8521 24.5855 8.81788 24.5859 9.89746C24.5859 11.0989 22.5659 12.1585 19.4834 12.793C22.5657 13.4273 24.5854 14.4881 24.5859 15.6895C24.5859 16.8913 22.5647 17.9516 19.4805 18.5859C22.5644 19.2202 24.5854 20.2807 24.5859 21.4824C24.5859 23.4249 19.3062 25 12.793 25C6.27987 25 1 23.4248 1 21.4824C1.00054 20.2809 3.02134 19.2203 6.10449 18.5859C3.02104 17.9515 1 16.8911 1 15.6895C1.00054 14.4882 3.02044 13.4273 6.10254 12.793C3.02025 12.1585 1 11.0989 1 9.89746C1.00048 8.81793 2.63181 7.8521 5.19922 7.20703C2.63156 6.56187 1 5.59629 1 4.5166C1.00087 2.57441 6.28041 1.00003 12.793 1Z"/>
</mask>
<path d="M12.793 1V0H12.793L12.793 1ZM24.5859 4.5166H25.5859V4.51616L24.5859 4.5166ZM20.3867 7.20703L20.143 6.23717L20.1431 8.17689L20.3867 7.20703ZM24.5859 9.89746H25.5859V9.89701L24.5859 9.89746ZM19.4834 12.793L19.2818 11.8135L19.2818 13.7724L19.4834 12.793ZM24.5859 15.6895H25.5859V15.689L24.5859 15.6895ZM19.4805 18.5859L19.279 17.6064L19.279 19.5654L19.4805 18.5859ZM24.5859 21.4824H25.5859V21.482L24.5859 21.4824ZM12.793 25L12.793 26H12.793V25ZM1 21.4824L0 21.482V21.4824H1ZM6.10449 18.5859L6.30601 19.5654L6.30602 17.6065L6.10449 18.5859ZM1 15.6895L0 15.689V15.6895H1ZM6.10254 12.793L6.30413 13.7724L6.30415 11.8135L6.10254 12.793ZM1 9.89746L0 9.89701V9.89746H1ZM5.19922 7.20703L5.4429 8.17689L5.44291 6.23718L5.19922 7.20703ZM1 4.5166L0 4.51616V4.5166H1ZM12.793 1V2C15.9805 2 18.8277 2.38654 20.8456 2.98827C21.861 3.29105 22.6099 3.63187 23.0826 3.9651C23.3166 4.13007 23.4511 4.27102 23.5217 4.37385C23.5873 4.46942 23.5859 4.51292 23.5859 4.51705L24.5859 4.5166L25.5859 4.51616C25.5855 3.54323 24.9289 2.81961 24.2349 2.33043C23.514 1.82221 22.5358 1.40526 21.4171 1.07167C19.1669 0.40066 16.1181 0 12.793 0V1ZM24.5859 4.5166H23.5859C23.5859 4.51812 23.5703 4.76857 22.918 5.17756C22.3139 5.5564 21.3766 5.92726 20.143 6.23717L20.3867 7.20703L20.6304 8.17689C21.9648 7.84164 23.1271 7.40716 23.9805 6.87201C24.7859 6.36701 25.5859 5.59482 25.5859 4.5166H24.5859ZM20.3867 7.20703L20.1431 8.17689C21.3764 8.48674 22.3136 8.85764 22.9177 9.2365C23.57 9.64551 23.5859 9.89614 23.5859 9.89791L24.5859 9.89746L25.5859 9.89701C25.5855 8.8192 24.7856 8.04715 23.9803 7.54211C23.1269 7.00692 21.9647 6.57239 20.6304 6.23717L20.3867 7.20703ZM24.5859 9.89746H23.5859C23.5859 9.906 23.5481 10.2155 22.7051 10.6836C21.9388 11.1091 20.7729 11.5066 19.2818 11.8135L19.4834 12.793L19.685 13.7724C21.2764 13.4449 22.6617 12.9954 23.6761 12.4321C24.6138 11.9114 25.5859 11.0904 25.5859 9.89746H24.5859ZM19.4834 12.793L19.2818 13.7724C20.7727 14.0793 21.9384 14.477 22.7046 14.9027C23.5474 15.371 23.5859 15.6809 23.5859 15.6899L24.5859 15.6895L25.5859 15.689C25.5854 14.4967 24.6138 13.6755 23.676 13.1545C22.6617 12.5909 21.2765 12.141 19.685 11.8135L19.4834 12.793ZM24.5859 15.6895H23.5859C23.5859 15.6981 23.5479 16.0079 22.7044 16.4762C21.9376 16.9019 20.7709 17.2996 19.279 17.6064L19.4805 18.5859L19.6819 19.5654C21.2742 19.2379 22.6603 18.7882 23.6752 18.2248C24.6133 17.7039 25.5859 16.8827 25.5859 15.6895H24.5859ZM19.4805 18.5859L19.279 19.5654C20.7707 19.8722 21.9372 20.2699 22.704 20.6957C23.5475 21.164 23.5859 21.474 23.5859 21.4829L24.5859 21.4824L25.5859 21.482C25.5854 20.2892 24.6131 19.468 23.6749 18.9471C22.6601 18.3836 21.2741 17.9339 19.6819 17.6064L19.4805 18.5859ZM24.5859 21.4824H23.5859C23.5859 21.4865 23.5873 21.53 23.5218 21.6255C23.4512 21.7283 23.3169 21.8693 23.0829 22.0343C22.6103 22.3676 21.8614 22.7085 20.8461 23.0113C18.8281 23.6133 15.9807 24 12.793 24V25V26C16.1184 26 19.1675 25.5991 21.4177 24.9279C22.5365 24.5942 23.5146 24.1771 24.2355 23.6687C24.9294 23.1794 25.5859 22.4555 25.5859 21.4824H24.5859ZM12.793 25L12.793 24C9.6053 24 6.75785 23.6133 4.73992 23.0113C3.72454 22.7084 2.97567 22.3675 2.50305 22.0343C2.26907 21.8693 2.1347 21.7283 2.06417 21.6255C1.99864 21.53 2 21.4865 2 21.4824H1H0C0 22.4555 0.656543 23.1794 1.35045 23.6687C2.07134 24.1771 3.04951 24.5942 4.16823 24.9279C6.41851 25.5991 9.46754 26 12.793 26L12.793 25ZM1 21.4824L2 21.4829C2 21.474 2.03844 21.1641 2.88178 20.6957C3.64843 20.2699 4.8147 19.8722 6.30601 19.5654L6.10449 18.5859L5.90298 17.6065C4.31113 17.934 2.92542 18.3837 1.91075 18.9473C0.972762 19.4682 0.000532031 20.2893 1.19209e-07 21.482L1 21.4824ZM6.10449 18.5859L6.30602 17.6065C4.8145 17.2996 3.6481 16.9019 2.88143 16.4762C2.03803 16.0078 2 15.6981 2 15.6895H1H0C0 16.8825 0.972491 17.7038 1.91047 18.2247C2.92518 18.7882 4.31102 19.2379 5.90297 19.5654L6.10449 18.5859ZM1 15.6895L2 15.6899C2 15.681 2.03848 15.3711 2.88137 14.9028C3.64765 14.477 4.8134 14.0793 6.30413 13.7724L6.10254 12.793L5.90094 11.8135C4.30958 12.141 2.92433 12.5909 1.91 13.1545C0.972276 13.6755 0.000531852 14.4966 1.19209e-07 15.689L1 15.6895ZM6.10254 12.793L6.30415 11.8135C4.81315 11.5066 3.64722 11.1091 2.88087 10.6836C2.03784 10.2154 2 9.90593 2 9.89746H1H0C0 11.0904 0.972287 11.9114 1.90995 12.4321C2.9243 12.9953 4.30963 13.4449 5.90093 13.7724L6.10254 12.793ZM1 9.89746L2 9.89791C2 9.89622 2.01596 9.64559 2.66828 9.23653C3.27248 8.85764 4.20968 8.48674 5.4429 8.17689L5.19922 7.20703L4.95554 6.23718C3.62135 6.5724 2.45918 7.00694 1.60574 7.54212C0.800421 8.04713 0.000480771 8.81917 1.19209e-07 9.89701L1 9.89746ZM5.19922 7.20703L5.44291 6.23718C4.2095 5.92727 3.27218 5.55639 2.66796 5.17753C2.01561 4.76849 2 4.51805 2 4.5166H1H0C0 5.59485 0.800174 6.36703 1.60551 6.87199C2.45898 7.40714 3.62127 7.84163 4.95553 8.17688L5.19922 7.20703ZM1 4.5166L2 4.51705C2 4.51293 1.99867 4.46943 2.06427 4.37387C2.13487 4.27104 2.26931 4.13009 2.50334 3.96512C2.97607 3.63189 3.72499 3.29107 4.74036 2.98829C6.75827 2.38656 9.60554 2.00002 12.793 2L12.793 1L12.793 0C9.46784 1.69277e-05 6.41905 0.400683 4.16884 1.07169C3.05014 1.40528 2.07199 1.82223 1.35103 2.33044C0.657089 2.81961 0.000433981 3.54323 1.19209e-07 4.51616L1 4.5166Z" fill="#75A302" mask="url(#path-1-outside-1_2058_1894)"/>
</svg>
