<svg width="393" height="12" viewBox="0 0 393 12" fill="none" xmlns="http://www.w3.org/2000/svg">
<path d="M0.75 4.77344C0.335786 4.77344 0 5.10922 0 5.52344C0 5.93765 0.335786 6.27344 0.75 6.27344V5.52344V4.77344ZM392.28 6.05377C392.573 5.76087 392.573 5.286 392.28 4.99311L387.507 0.220137C387.214 -0.0727568 386.74 -0.0727568 386.447 0.220137C386.154 0.51303 386.154 0.987904 386.447 1.2808L390.689 5.52344L386.447 9.76608C386.154 10.059 386.154 10.5338 386.447 10.8267C386.74 11.1196 387.214 11.1196 387.507 10.8267L392.28 6.05377ZM0.75 5.52344V6.27344H391.75V5.52344V4.77344H0.75V5.52344Z" fill="#006174"/>
</svg>
