<svg width="28" height="32" viewBox="0 0 28 32" fill="none" xmlns="http://www.w3.org/2000/svg">
<path d="M0.5 12.8881V4.94551H8.37757C8.05835 3.46367 8.254 0.5 11.5904 0.5C14.9268 0.5 14.7311 3.46367 14.2162 4.94551H22.1556V12.8881C23.9371 12.4535 27.5 12.4554 27.5 15.9407C27.5 19.426 23.9371 19.4477 22.1556 19.0229V26.1061H14.2162C14.4737 27.9041 14.1297 31.5 10.6945 31.5C7.25927 31.5 7.71854 27.9041 8.37757 26.1061H0.5V19.0229C2.41533 19.2106 6.246 18.857 6.246 15.9407C6.246 13.0245 2.41533 12.6906 0.5 12.8881Z" stroke="#75A302"/>
</svg>
