<svg width="25" height="28" viewBox="0 0 25 28" fill="none" xmlns="http://www.w3.org/2000/svg">
<mask id="path-1-inside-1_2058_1715" fill="white">
<path d="M20.1974 0C23.2622 0 25.8448 2.56674 24.7385 5.4248C24.0728 7.14451 23.0973 8.70718 21.8674 10.0234C20.7971 11.1688 19.5517 12.1078 18.1877 12.8018C19.5518 13.5801 20.797 14.6334 21.8674 15.918C23.0974 17.3942 24.0727 19.1474 24.7385 21.0762C25.8545 24.3103 22.9733 27.1601 19.5519 27.1602H5.44744C2.02598 27.1602 -0.855177 24.3104 0.26092 21.0762C0.926658 19.1473 1.9019 17.3942 3.13201 15.918C4.20226 14.6336 5.44683 13.58 6.81072 12.8018C5.44696 12.1078 4.20217 11.1686 3.13201 10.0234C1.90203 8.70717 0.926612 7.14453 0.26092 5.4248C-0.845364 2.56683 1.73638 0.000185693 4.80096 0H20.1974Z"/>
</mask>
<path d="M24.7385 5.4248L25.671 5.78579L25.671 5.78579L24.7385 5.4248ZM21.8674 10.0234L22.598 10.7062L22.598 10.7062L21.8674 10.0234ZM18.1877 12.8018L17.7342 11.9105L16.0815 12.7514L17.6921 13.6703L18.1877 12.8018ZM21.8674 15.918L22.6356 15.2778L22.6356 15.2778L21.8674 15.918ZM24.7385 21.0762L25.6838 20.75L25.6837 20.7499L24.7385 21.0762ZM19.5519 27.1602V28.1602H19.552L19.5519 27.1602ZM5.44744 27.1602V26.1602V26.1602V27.1602ZM0.26092 21.0762L-0.684358 20.7499L-0.684376 20.75L0.26092 21.0762ZM3.13201 15.918L2.36377 15.2778L2.36377 15.2778L3.13201 15.918ZM6.81072 12.8018L7.30634 13.6703L8.91672 12.7514L7.26424 11.9105L6.81072 12.8018ZM3.13201 10.0234L2.40137 10.7062L2.40139 10.7062L3.13201 10.0234ZM0.26092 5.4248L-0.671651 5.78579L-0.67165 5.78579L0.26092 5.4248ZM4.80096 0V-1H4.8009L4.80096 0ZM20.1974 0V1C21.461 1 22.5955 1.53186 23.2856 2.30603C23.9549 3.0569 24.2088 4.02304 23.8059 5.06382L24.7385 5.4248L25.671 5.78579C26.3745 3.9685 25.8901 2.22223 24.7786 0.975218C23.6878 -0.24849 21.9986 -1 20.1974 -1V0ZM24.7385 5.4248L23.8059 5.06382C23.1852 6.6673 22.2773 8.12009 21.1367 9.34069L21.8674 10.0234L22.598 10.7062C23.9173 9.29427 24.9604 7.62171 25.671 5.78579L24.7385 5.4248ZM21.8674 10.0234L21.1367 9.34066C20.1445 10.4025 18.9925 11.2703 17.7342 11.9105L18.1877 12.8018L18.6411 13.693C20.1109 12.9452 21.4496 11.935 22.598 10.7062L21.8674 10.0234ZM18.1877 12.8018L17.6921 13.6703C18.9463 14.3859 20.1006 15.3598 21.0991 16.5581L21.8674 15.918L22.6356 15.2778C21.4933 13.907 20.1573 12.7742 18.6832 11.9332L18.1877 12.8018ZM21.8674 15.918L21.0991 16.5581C22.2468 17.9355 23.1644 19.5808 23.7932 21.4024L24.7385 21.0762L25.6837 20.7499C24.9811 18.714 23.9481 16.8529 22.6356 15.2778L21.8674 15.918ZM24.7385 21.0762L23.7932 21.4024C24.2196 22.6383 23.8961 23.7842 23.1045 24.6607C22.2949 25.5572 20.9938 26.1601 19.5519 26.1602L19.5519 27.1602L19.552 28.1602C21.5314 28.1601 23.3816 27.3381 24.5889 26.0011C25.8142 24.6443 26.3733 22.7482 25.6838 20.75L24.7385 21.0762ZM19.5519 27.1602V26.1602H5.44744V27.1602V28.1602H19.5519V27.1602ZM5.44744 27.1602V26.1602C4.0055 26.1602 2.70436 25.5573 1.89476 24.6608C1.10319 23.7842 0.7797 22.6383 1.20622 21.4024L0.26092 21.0762L-0.684376 20.75C-1.37396 22.7482 -0.814919 24.6443 0.410431 26.0012C1.61775 27.3381 3.46792 28.1602 5.44744 28.1602V27.1602ZM0.26092 21.0762L1.2062 21.4024C1.83497 19.5807 2.75253 17.9355 3.90026 16.5581L3.13201 15.918L2.36377 15.2778C1.05126 16.853 0.018343 18.714 -0.684358 20.7499L0.26092 21.0762ZM3.13201 15.918L3.90026 16.5581C4.89875 15.3598 6.0525 14.3858 7.30634 13.6703L6.81072 12.8018L6.31511 11.9332C4.84116 12.7743 3.50576 13.9073 2.36377 15.2778L3.13201 15.918ZM6.81072 12.8018L7.26424 11.9105C6.0064 11.2705 4.85491 10.4025 3.86264 9.34066L3.13201 10.0234L2.40139 10.7062C3.54943 11.9347 4.88753 12.9452 6.35721 13.693L6.81072 12.8018ZM3.13201 10.0234L3.86266 9.34068C2.72207 8.12008 1.8142 6.66734 1.19349 5.06381L0.26092 5.4248L-0.67165 5.78579C0.0390244 7.62173 1.08199 9.29426 2.40137 10.7062L3.13201 10.0234ZM0.26092 5.4248L1.19349 5.06382C0.790595 4.02298 1.04433 3.05685 1.71343 2.30605C2.40329 1.53194 3.53753 1.00008 4.80102 1L4.80096 0L4.8009 -1C2.99981 -0.999891 1.31088 -0.248338 0.220304 0.975415C-0.891045 2.22248 -1.37504 3.96866 -0.671651 5.78579L0.26092 5.4248ZM4.80096 0V1H20.1974V0V-1H4.80096V0Z" fill="#75A302" mask="url(#path-1-inside-1_2058_1715)"/>
</svg>
