<svg width="273" height="12" viewBox="0 0 273 12" fill="none" xmlns="http://www.w3.org/2000/svg">
<path d="M0.75 4.77344C0.335786 4.77344 0 5.10922 0 5.52344C0 5.93765 0.335786 6.27344 0.75 6.27344V5.52344V4.77344ZM272.28 6.05377C272.573 5.76087 272.573 5.286 272.28 4.99311L267.507 0.220137C267.214 -0.0727568 266.74 -0.0727568 266.447 0.220137C266.154 0.51303 266.154 0.987904 266.447 1.2808L270.689 5.52344L266.447 9.76608C266.154 10.059 266.154 10.5338 266.447 10.8267C266.74 11.1196 267.214 11.1196 267.507 10.8267L272.28 6.05377ZM0.75 5.52344V6.27344H271.75V5.52344V4.77344H0.75V5.52344Z" fill="#75A302"/>
</svg>
