<svg width="188" height="12" viewBox="0 0 188 12" fill="none" xmlns="http://www.w3.org/2000/svg">
<path d="M0.75 4.77344C0.335786 4.77344 0 5.10922 0 5.52344C0 5.93765 0.335786 6.27344 0.75 6.27344V5.52344V4.77344ZM187.28 6.05377C187.573 5.76087 187.573 5.286 187.28 4.99311L182.507 0.220137C182.214 -0.0727568 181.74 -0.0727568 181.447 0.220137C181.154 0.51303 181.154 0.987904 181.447 1.2808L185.689 5.52344L181.447 9.76608C181.154 10.059 181.154 10.5338 181.447 10.8267C181.74 11.1196 182.214 11.1196 182.507 10.8267L187.28 6.05377ZM0.75 5.52344V6.27344H186.75V5.52344V4.77344H0.75V5.52344Z" fill="#006174"/>
</svg>
