<svg width="52" height="12" viewBox="0 0 52 12" fill="none" xmlns="http://www.w3.org/2000/svg">
<path d="M0.75 4.77344C0.335786 4.77344 0 5.10922 0 5.52344C0 5.93765 0.335786 6.27344 0.75 6.27344V5.52344V4.77344ZM51.2803 6.05377C51.5732 5.76087 51.5732 5.286 51.2803 4.99311L46.5074 0.220137C46.2145 -0.0727568 45.7396 -0.0727568 45.4467 0.220137C45.1538 0.51303 45.1538 0.987904 45.4467 1.2808L49.6893 5.52344L45.4467 9.76608C45.1538 10.059 45.1538 10.5338 45.4467 10.8267C45.7396 11.1196 46.2145 11.1196 46.5074 10.8267L51.2803 6.05377ZM0.75 5.52344V6.27344H50.75V5.52344V4.77344H0.75V5.52344Z" fill="#75A302"/>
</svg>
