<svg width="45" height="45" viewBox="0 0 45 45" fill="none" xmlns="http://www.w3.org/2000/svg">
<g clip-path="url(#clip0_1958_8574)">
<path d="M22.4984 43.5887C34.1144 43.5887 43.531 34.172 43.531 22.556C43.531 10.9401 34.1144 1.52344 22.4984 1.52344C10.8824 1.52344 1.46582 10.9401 1.46582 22.556C1.46582 34.172 10.8824 43.5887 22.4984 43.5887Z" stroke="#FF5B32" stroke-width="1.74956"/>
<path d="M13.3263 22.0349C18.2079 19.9081 21.4631 18.5059 23.0918 17.8285C27.7421 15.8942 28.7085 15.5582 29.3383 15.547C29.4768 15.5446 29.7865 15.579 29.9872 15.7418C30.1566 15.8793 30.2032 16.065 30.2255 16.1953C30.2478 16.3256 30.2755 16.6225 30.2535 16.8545C30.0015 19.5023 28.9111 25.9279 28.3563 28.8936C28.1216 30.1484 27.6594 30.5692 27.2119 30.6103C26.2395 30.6999 25.501 29.9677 24.5593 29.3502C23.0854 28.3842 22.2528 27.7828 20.8222 26.84C19.169 25.7505 20.2407 25.1517 21.1829 24.1731C21.4295 23.9171 25.714 20.0199 25.797 19.6663C25.8073 19.6221 25.8169 19.4573 25.7191 19.3703C25.6212 19.2833 25.4766 19.313 25.3723 19.3367C25.2245 19.3702 22.8701 20.9264 18.3091 24.0053C17.6408 24.4642 17.0355 24.6878 16.4931 24.676C15.8952 24.6631 14.7451 24.338 13.8901 24.0601C12.8415 23.7192 12.008 23.539 12.0806 22.96C12.1183 22.6585 12.5336 22.3501 13.3263 22.0349Z" fill="#FF5B32"/>
</g>
<defs>
<clipPath id="clip0_1958_8574">
<rect width="45" height="45" fill="white"/>
</clipPath>
</defs>
</svg>
